<svg version="1.1" viewBox="0.0 0.0 104.58267716535433 100.0" fill="none" stroke="none" stroke-linecap="square" stroke-miterlimit="10" xmlns:xlink="http://www.w3.org/1999/xlink" xmlns="http://www.w3.org/2000/svg"><clipPath id="p.0"><path d="m0 0l104.58268 0l0 100.0l-104.58268 0l0 -100.0z" clip-rule="nonzero"/></clipPath><g clip-path="url(#p.0)"><path fill="#000000" fill-opacity="0.0" d="m0 0l104.58268 0l0 100.0l-104.58268 0z" fill-rule="evenodd"/><path fill="#000000" d="m1.3412074 50.0l0 0c0 -27.022814 22.8229 -48.929134 50.97638 -48.929134l0 0c13.519779 0 26.48582 5.155019 36.045742 14.331011c9.559929 9.175992 14.930634 21.621307 14.930634 34.59812l0 0c0 27.022812 -22.822899 48.92913 -50.976376 48.92913l0 0c-28.153477 0 -50.97638 -21.906319 -50.97638 -48.92913z" fill-rule="evenodd"/><path stroke="#000000" stroke-width="1.0" stroke-linejoin="round" stroke-linecap="butt" d="m1.3412074 50.0l0 0c0 -27.022814 22.8229 -48.929134 50.97638 -48.929134l0 0c13.519779 0 26.48582 5.155019 36.045742 14.331011c9.559929 9.175992 14.930634 21.621307 14.930634 34.59812l0 0c0 27.022812 -22.822899 48.92913 -50.976376 48.92913l0 0c-28.153477 0 -50.97638 -21.906319 -50.97638 -48.92913z" fill-rule="evenodd"/><path fill="#000000" fill-opacity="0.0" d="m-8.278215 27.293962l130.83464 0l0 41.196854l-130.83464 0z" fill-rule="evenodd"/><path fill="#ffffff" d="m2.4717848 58.053963l0 -16.21875l6.109375 0q1.625 0 2.46875 0.15625q1.203125 0.203125 2.0 0.765625q0.8125 0.546875 1.296875 1.5625q0.5 1.0 0.5 2.203125q0 2.078125 -1.3125 3.515625q-1.3125 1.421875 -4.765625 1.421875l-4.15625 0l0 6.59375l-2.1406248 0zm2.1406248 -8.5l4.203125 0q2.078125 0 2.953125 -0.78125q0.875 -0.78125 0.875 -2.171875q0 -1.03125 -0.515625 -1.75q-0.515625 -0.71875 -1.359375 -0.953125q-0.546875 -0.140625 -2.0 -0.140625l-4.15625 0l0 5.796875zm12.674042 8.5l0 -16.21875l1.984375 0l0 16.21875l-1.984375 0zm12.736618 -1.453125q-1.109375 0.9375 -2.140625 1.328125q-1.015625 0.390625 -2.1875 0.390625q-1.9375 0 -2.984375 -0.9375q-1.03125 -0.953125 -1.03125 -2.421875q0 -0.859375 0.390625 -1.578125q0.40625 -0.71875 1.03125 -1.140625q0.640625 -0.4375 1.4375 -0.65625q0.59375 -0.15625 1.765625 -0.296875q2.421875 -0.296875 3.5625 -0.6875q0 -0.40625 0 -0.515625q0 -1.21875 -0.5625 -1.71875q-0.765625 -0.671875 -2.265625 -0.671875q-1.40625 0 -2.078125 0.5q-0.671875 0.484375 -0.984375 1.734375l-1.953125 -0.265625q0.265625 -1.25 0.875 -2.015625q0.609375 -0.78125 1.75 -1.1875q1.15625 -0.421875 2.671875 -0.421875q1.515625 0 2.453125 0.359375q0.9375 0.34375 1.375 0.890625q0.453125 0.53125 0.625 1.34375q0.09375 0.515625 0.09375 1.84375l0 2.65625q0 2.78125 0.125 3.515625q0.1406269 0.734375 0.5156269 1.40625l-2.078127 0q-0.3125 -0.625 -0.40625 -1.453125zm-0.15625 -4.4375q-1.09375 0.4375 -3.265625 0.75q-1.21875 0.171875 -1.734375 0.390625q-0.5 0.21875 -0.78125 0.65625q-0.28125 0.421875 -0.28125 0.9375q0 0.796875 0.609375 1.328125q0.609375 0.53125 1.765625 0.53125q1.140625 0 2.03125 -0.5q0.90625 -0.5 1.328125 -1.375q0.328125 -0.671875 0.328125 -2.0l0 -0.71875zm9.444078 4.109375l0.28125 1.765625q-0.84375 0.171875 -1.5 0.171875q-1.078125 0 -1.6875 -0.34375q-0.59375 -0.34375 -0.84375 -0.890625q-0.234375 -0.5625 -0.234375 -2.359375l0 -6.765625l-1.46875 0l0 -1.546875l1.46875 0l0 -2.90625l1.984375 -1.203125l0 4.109375l2.0 0l0 1.546875l-2.0 0l0 6.875q0 0.84375 0.09375 1.09375q0.109375 0.25 0.34375 0.390625q0.25 0.140625 0.6875 0.140625q0.328125 0 0.875 -0.078125zm9.982132 -2.0l2.0625 0.25q-0.484375 1.8125 -1.8125 2.8125q-1.3125 0.984375 -3.359375 0.984375q-2.578125 0 -4.09375 -1.578125q-1.5 -1.59375 -1.5 -4.46875q0 -2.953125 1.53125 -4.59375q1.53125 -1.640625 3.953125 -1.640625q2.359375 0 3.84375 1.609375q1.5 1.59375 1.5 4.515625q0 0.171875 0 0.53125l-8.765625 0q0.109375 1.9375 1.09375 2.96875q0.984375 1.015625 2.453125 1.015625q1.09375 0 1.859375 -0.5625q0.78125 -0.578125 1.234375 -1.84375zm-6.53125 -3.21875l6.5625 0q-0.140625 -1.484375 -0.75 -2.21875q-0.953125 -1.15625 -2.46875 -1.15625q-1.375 0 -2.3125 0.921875q-0.9375 0.90625 -1.03125 2.453125zm15.475327 7.0l0 -14.296875l-5.34375 0l0 -1.921875l12.859375 0l0 1.921875l-5.375 0l0 14.296875l-2.140625 0zm9.46434 -13.921875l0 -2.296875l2.0 0l0 2.296875l-2.0 0zm0 13.921875l0 -11.75l2.0 0l0 11.75l-2.0 0zm5.033493 0l0 -11.75l1.78125 0l0 1.65625q0.546875 -0.875 1.46875 -1.390625q0.921875 -0.53125 2.09375 -0.53125q1.296875 0 2.125 0.546875q0.84375 0.53125 1.1875 1.515625q1.390625 -2.0625 3.625 -2.0625q1.75 0 2.6875 0.96875q0.9375 0.96875 0.9375 2.984375l0 8.0625l-1.96875 0l0 -7.40625q0 -1.1875 -0.203125 -1.703125q-0.1875 -0.53125 -0.703125 -0.84375q-0.5 -0.328125 -1.1875 -0.328125q-1.234375 0 -2.0625 0.828125q-0.8125 0.8125 -0.8125 2.625l0 6.828125l-2.0 0l0 -7.640625q0 -1.3125 -0.484375 -1.96875q-0.484375 -0.671875 -1.59375 -0.671875q-0.84375 0 -1.5625 0.4375q-0.703125 0.4375 -1.03125 1.296875q-0.3125 0.84375 -0.3125 2.453125l0 6.09375l-1.984375 0zm26.904083 -3.78125l2.0625 0.25q-0.484375 1.8125 -1.8125 2.8125q-1.3125 0.984375 -3.359375 0.984375q-2.578125 0 -4.09375 -1.578125q-1.5 -1.59375 -1.5 -4.46875q0 -2.953125 1.53125 -4.59375q1.53125 -1.640625 3.953125 -1.640625q2.359375 0 3.84375 1.609375q1.5 1.59375 1.5 4.515625q0 0.171875 0 0.53125l-8.765625 0q0.109375 1.9375 1.09375 2.96875q0.984375 1.015625 2.453125 1.015625q1.09375 0 1.859375 -0.5625q0.78125 -0.578125 1.234375 -1.84375zm-6.53125 -3.21875l6.5625 0q-0.140625 -1.484375 -0.75 -2.21875q-0.953125 -1.15625 -2.46875 -1.15625q-1.375 0 -2.3125 0.921875q-0.9375 0.90625 -1.03125 2.453125z" fill-rule="nonzero"/></g></svg>